<?xml version="1.0" standalone="no"?>
<!DOCTYPE svg PUBLIC "-//W3C//DTD SVG 20010904//EN"
 "http://www.w3.org/TR/2001/REC-SVG-20010904/DTD/svg10.dtd">
<svg version="1.0" xmlns="http://www.w3.org/2000/svg"
 width="898.000000pt" height="898.000000pt" viewBox="0 0 898.000000 898.000000"
 preserveAspectRatio="xMidYMid meet">

<g transform="translate(0.000000,898.000000) scale(0.100000,-0.100000)"
fill="#000000" stroke="none">
<path d="M4452 8627 c-47 -193 -108 -516 -123 -640 -14 -125 -7 -294 16 -382
27 -102 88 -214 154 -287 66 -71 139 -122 263 -183 106 -51 152 -103 232 -264
36 -72 84 -160 106 -196 22 -36 40 -67 40 -68 0 -2 -56 25 -125 60 -145 74
-308 139 -461 183 -146 43 -184 72 -254 192 -104 176 -201 275 -342 348 -208
109 -426 110 -788 5 -102 -30 -307 -101 -318 -110 -4 -4 40 -45 253 -231 318
-279 407 -347 527 -404 176 -83 365 -76 533 20 63 36 197 63 265 54 131 -17
340 -90 525 -184 446 -226 789 -564 1006 -992 21 -43 39 -84 39 -91 0 -8 -17
-27 -38 -44 l-38 -30 -44 85 c-99 190 -249 392 -415 557 -122 121 -337 285
-452 344 l-40 20 -30 -42 c-60 -84 -64 -99 -47 -157 9 -29 13 -63 10 -76 -4
-13 -94 -106 -206 -210 -147 -137 -200 -193 -200 -210 0 -32 49 -76 108 -97
76 -26 81 -74 17 -156 -41 -51 -42 -57 -14 -87 l22 -23 -32 -36 c-33 -38 -34
-50 -5 -107 21 -41 18 -51 -42 -140 -79 -115 -84 -173 -23 -242 41 -47 95 -63
279 -81 206 -21 304 -45 347 -87 61 -59 136 -226 178 -399 85 -351 46 -569
-159 -883 -42 -65 -71 -116 -64 -113 166 71 343 121 627 177 252 50 366 79
502 126 220 76 402 185 599 357 524 460 852 1241 766 1827 -44 299 -206 629
-460 935 -76 93 -272 289 -366 368 -257 217 -636 409 -942 477 -141 32 -136
34 -130 -57 2 -43 6 -79 7 -81 1 -2 54 -13 116 -26 368 -75 739 -288 1057
-606 209 -209 374 -452 462 -682 141 -368 105 -798 -101 -1210 -92 -183 -193
-322 -335 -458 -109 -105 -209 -172 -379 -255 -164 -80 -286 -122 -522 -180
-174 -43 -394 -103 -435 -120 -16 -6 -18 0 -18 59 0 66 1 68 47 118 95 101
198 169 543 359 322 177 516 340 702 589 86 115 202 337 238 455 125 415 96
718 -97 1020 -64 99 -252 315 -274 315 -5 0 14 -29 41 -65 231 -305 327 -662
269 -995 -52 -292 -165 -526 -377 -780 -157 -188 -303 -310 -657 -550 -132
-89 -281 -193 -331 -231 -49 -38 -94 -69 -98 -69 -4 0 -5 39 -4 87 l3 86 185
129 c411 285 457 320 599 447 172 155 336 363 423 536 102 202 152 452 128
640 -35 287 -157 529 -363 720 -98 92 -242 190 -358 244 -207 97 -478 138
-576 87 -20 -10 -40 -35 -57 -68 -22 -43 -26 -66 -26 -133 0 -167 61 -301 253
-558 71 -95 160 -218 198 -274 69 -102 169 -280 169 -301 0 -11 -50 -66 -55
-60 -1 2 -29 48 -61 103 -109 185 -299 421 -557 692 -158 166 -304 389 -359
549 -25 72 -29 99 -26 158 3 63 8 80 45 142 153 257 134 580 -51 857 -69 104
-137 178 -393 424 l-200 192 -31 -132z m2085 -2144 c36 -46 108 -206 131 -292
34 -131 37 -357 5 -501 -67 -302 -210 -550 -456 -789 -115 -113 -224 -197
-464 -357 l-188 -126 -3 68 c-2 38 -1 78 2 90 4 14 46 46 120 93 302 188 510
376 664 599 231 334 274 736 118 1100 -20 46 -36 86 -36 88 0 5 73 43 84 44 5
0 15 -8 23 -17z m-108 -616 c3 -327 -237 -685 -642 -958 -123 -83 -215 -134
-224 -125 -3 3 -2 38 1 78 l7 73 64 37 c175 103 383 288 495 439 100 134 226
380 272 526 17 57 26 33 27 -70z m273 -1887 c-70 -65 -230 -171 -323 -214
-152 -70 -353 -121 -658 -166 -186 -28 -173 -31 -169 38 l3 57 100 21 c55 12
190 41 300 64 295 62 619 160 742 224 26 14 50 25 53 25 3 0 -19 -22 -48 -49z"/>
<path d="M3835 8363 c-313 -41 -711 -152 -1031 -289 -635 -271 -1209 -741
-1620 -1327 -384 -547 -621 -1205 -684 -1902 -15 -165 -12 -569 5 -751 86
-895 430 -1670 1026 -2310 367 -394 782 -690 1272 -905 l99 -43 226 12 c316
17 592 50 900 109 l142 27 61 116 c153 289 364 557 609 775 252 224 417 330
1080 697 439 243 679 411 924 648 189 183 321 346 425 524 158 269 257 522
311 795 29 149 25 157 -26 56 -168 -329 -333 -562 -551 -777 -168 -166 -299
-261 -498 -360 -204 -102 -352 -147 -715 -218 -296 -58 -438 -94 -576 -146
-276 -103 -454 -216 -646 -411 -101 -102 -156 -171 -240 -300 -33 -51 -64 -93
-70 -93 -41 0 -322 137 -463 226 -195 122 -417 311 -500 424 l-33 45 26 118
c14 64 28 117 31 117 3 0 26 -29 51 -65 25 -36 50 -65 56 -65 6 0 121 53 255
119 573 279 763 372 767 376 2 2 -78 120 -179 262 -100 142 -231 326 -289 408
-59 83 -129 182 -157 220 -27 39 -173 243 -323 455 -150 212 -349 491 -442
620 -94 129 -174 242 -178 250 -7 12 -13 13 -27 4 -33 -21 -597 -382 -701
-449 -56 -36 -108 -68 -115 -71 -15 -5 -19 7 -113 301 -36 116 -69 213 -73
217 -3 3 -37 -22 -76 -57 l-69 -63 44 -88 c24 -49 58 -119 77 -156 18 -38 31
-68 29 -68 -6 0 -190 259 -205 288 -6 12 -15 22 -19 22 -4 -1 -38 -29 -76 -64
l-70 -63 139 -199 c76 -109 157 -225 179 -256 23 -31 72 -101 109 -155 38 -54
109 -156 159 -228 50 -71 136 -194 191 -273 l99 -143 -12 -231 -12 -232 80
-160 c50 -101 130 -292 212 -511 143 -378 227 -564 336 -746 294 -487 686
-891 1127 -1159 98 -60 99 -58 -5 -104 -94 -42 -185 -56 -350 -56 -177 0 -289
15 -478 64 -339 86 -647 241 -988 495 -287 214 -594 539 -799 846 -278 416
-452 863 -538 1374 -40 242 -49 354 -49 621 0 263 7 344 50 602 148 887 637
1691 1349 2214 264 194 625 380 930 477 101 32 321 85 423 102 28 5 42 12 42
22 0 54 179 376 234 423 34 28 11 35 -79 23z m-1600 -3449 c43 -28 359 -481
443 -635 69 -125 53 -120 -51 19 -110 145 -351 496 -402 585 -29 51 -28 56 10
31z"/>
<path d="M5317 8348 c78 -100 116 -153 148 -203 42 -66 135 -253 135 -272 0
-7 10 -15 23 -17 217 -47 393 -110 628 -228 310 -155 584 -352 834 -603 341
-340 573 -716 668 -1080 43 -164 47 -231 47 -704 0 -551 -11 -658 -95 -952
-165 -571 -496 -1053 -1000 -1455 -206 -164 -445 -314 -895 -564 -457 -254
-672 -397 -851 -568 -49 -47 -88 -86 -87 -88 2 -1 84 26 183 60 651 228 1366
629 1830 1027 187 160 424 420 571 625 180 253 369 616 455 874 l19 55 -6 -75
c-13 -175 -53 -367 -104 -496 -221 -555 -782 -1159 -1490 -1604 -492 -310
-1098 -580 -1628 -725 l-102 -28 -70 -107 c-64 -99 -95 -158 -87 -166 2 -2 61
12 133 30 833 218 1670 628 2262 1109 285 231 648 608 901 935 35 45 66 81 68
79 6 -6 -72 -180 -124 -277 -440 -820 -1416 -1517 -2721 -1944 -457 -150 -835
-236 -1320 -302 -111 -15 -200 -29 -198 -31 8 -8 253 -63 366 -82 257 -44 395
-55 695 -55 312 0 461 12 748 60 615 104 1198 355 1701 733 384 289 701 635
977 1066 311 486 514 1101 575 1740 21 217 15 695 -10 885 -37 270 -116 598
-202 836 -303 836 -854 1527 -1594 1998 -377 241 -856 434 -1254 506 -130 24
-142 24 -129 8z"/>
<path d="M2043 5941 c-35 -9 -63 -21 -63 -27 0 -17 55 -255 83 -359 45 -165
51 -185 57 -185 8 0 20 303 20 477 0 129 8 121 -97 94z"/>
<path d="M7262 5541 c-20 -115 -78 -284 -152 -436 -113 -231 -236 -397 -410
-552 -173 -154 -331 -248 -705 -418 -93 -43 -174 -82 -180 -88 -7 -7 -5 -8 6
-4 8 3 89 28 180 57 416 132 645 257 855 465 251 250 384 535 415 892 13 150
8 192 -9 84z"/>
</g>
</svg>
